<?xml version="1.0" encoding="utf-8"?>
<!-- Generator: Adobe Illustrator 24.1.0, SVG Export Plug-In . SVG Version: 6.00 Build 0)  -->
<svg version="1.1" id="Layer_1" xmlns="http://www.w3.org/2000/svg" xmlns:xlink="http://www.w3.org/1999/xlink" x="0px" y="0px"
	 viewBox="0 0 1000 1000" style="enable-background:new 0 0 1000 1000;" xml:space="preserve">
<style type="text/css">
	.st0{fill:#FFFFFF;}
	.st1{fill:#292C34;}
	.st2{fill:#EC1A37;}
</style>
<rect class="st0" width="1000" height="1000"/>
<g>
	<g>
		<g>
			<rect x="822.4" y="702.96" class="st1" width="7.04" height="7.04"/>
		</g>
		<g>
			<g>
				<path class="st1" d="M275.36,801.84h-17.6V688.88h17.6c9.76,0,17.6,7.84,17.6,17.6v77.6C292.96,794,285.12,801.84,275.36,801.84
					z M264.8,794.8h10.56c5.76,0,10.56-4.8,10.56-10.56v-77.6c0-5.76-4.8-10.56-10.56-10.56H264.8V794.8z"/>
			</g>
			<path class="st1" d="M398.88,717.2c-7.84,0-14.08,6.4-14.08,14.08v56.48c0,7.84,6.4,14.08,14.08,14.08
				c2.56,0,4.96-0.64,7.04-1.92v16c0,3.84-3.2,7.04-7.04,7.04s-7.04-3.2-7.04-7.04h-7.04c0,7.84,6.4,14.08,14.08,14.08
				c7.84,0,14.08-6.4,14.08-14.08v-28.16v-56.48C412.96,723.44,406.72,717.2,398.88,717.2z M405.92,787.76
				c0,3.84-3.2,7.04-7.04,7.04s-7.04-3.2-7.04-7.04v-56.48c0-3.84,3.2-7.04,7.04-7.04s7.04,3.2,7.04,7.04V787.76z"/>
			<g>
				<g>
					<rect x="370.56" y="717.2" class="st1" width="7.04" height="84.64"/>
				</g>
			</g>
			<g>
				<path class="st1" d="M314.08,717.2c-7.84,0-14.08,6.4-14.08,14.08v56.48c0,7.84,6.4,14.08,14.08,14.08
					c7.84,0,14.08-6.4,14.08-14.08v-14.08h-7.04v14.08c0,3.84-3.2,7.04-7.04,7.04s-7.04-3.2-7.04-7.04V759.6h21.12l0,0v-28.16
					C328.32,723.44,321.92,717.2,314.08,717.2z M307.04,752.4v-21.12c0-3.84,3.2-7.04,7.04-7.04s7.04,3.2,7.04,7.04v21.12H307.04z"
					/>
			</g>
			<g>
				<g>
					<path class="st1" d="M342.4,773.68v14.08c0,3.84,3.2,7.04,7.04,7.04s7.04-3.2,7.04-7.04v-9.44c0-2.24-0.8-4.48-2.08-6.4
						l-15.52-20.64c-2.24-3.04-3.52-6.72-3.52-10.56v-9.44c0-7.84,6.4-14.08,14.08-14.08c7.84,0,14.08,6.4,14.08,14.08v14.08h-7.04
						v-14.08c0-3.84-3.2-7.04-7.04-7.04s-7.04,3.2-7.04,7.04v9.44c0,2.24,0.8,4.48,2.08,6.4L360,767.76
						c2.24,3.04,3.52,6.72,3.52,10.56v9.44c0,7.84-6.4,14.08-14.08,14.08c-7.84,0-14.08-6.4-14.08-14.08v-14.08
						C335.36,773.68,342.4,773.68,342.4,773.68z"/>
				</g>
			</g>
			<g>
				<rect x="370.56" y="702.96" class="st1" width="7.04" height="7.04"/>
			</g>
			<g>
				<path class="st1" d="M427.04,801.84v-70.56c0-3.84,3.2-7.04,7.04-7.04s7.04,3.2,7.04,7.04v70.56h7.04v-70.56
					c0-7.84-6.4-14.08-14.08-14.08c-7.84,0-14.08,6.4-14.08,14.08v70.56H427.04z"/>
			</g>
		</g>
		<g>
			<g>
				<path class="st1" d="M596.48,801.84c-7.84,0-14.08-6.4-14.08-14.08v-56.48c0-7.84,6.4-14.08,14.08-14.08
					c7.84,0,14.08,6.4,14.08,14.08v56.48C610.56,795.44,604.32,801.84,596.48,801.84z M596.48,724.24c-3.84,0-7.04,3.2-7.04,7.04
					v56.48c0,3.84,3.2,7.04,7.04,7.04c3.84,0,7.04-3.2,7.04-7.04v-56.48C603.52,727.44,600.32,724.24,596.48,724.24z"/>
			</g>
		</g>
		<g>
			<g>
				<path class="st1" d="M557.6,801.84c-9.76,0-17.6-7.84-17.6-17.6v-77.6c0-9.76,7.84-17.6,17.6-17.6s17.6,7.84,17.6,17.6v10.56
					h-7.04v-10.56c0-5.76-4.8-10.56-10.56-10.56s-10.56,4.8-10.56,10.56v77.6c0,5.76,4.8,10.56,10.56,10.56s10.56-4.8,10.56-10.56
					v-10.56h7.04v10.56C575.36,794,567.36,801.84,557.6,801.84z"/>
			</g>
		</g>
		<g>
			<path class="st1" d="M794.08,731.28c0-7.84-6.4-14.08-14.08-14.08s-14.08,6.4-14.08,14.08v56.48c0,7.84,6.4,14.08,14.08,14.08
				s14.08-6.4,14.08-14.08v-14.08h-7.04v14.08c0,3.84-3.2,7.04-7.04,7.04s-7.04-3.2-7.04-7.04v-56.48c0-3.84,3.2-7.04,7.04-7.04
				s7.04,3.2,7.04,7.04v14.08h7.04"/>
		</g>
		<g>
			<g>
				<path class="st1" d="M660,773.68v14.08c0,3.84,3.2,7.04,7.04,7.04c3.84,0,7.04-3.2,7.04-7.04v-9.44c0-2.24-0.8-4.48-2.08-6.4
					l-15.52-20.64c-2.24-3.04-3.52-6.72-3.52-10.56v-9.44c0-7.84,6.4-14.08,14.08-14.08c7.84,0,14.08,6.4,14.08,14.08v14.08h-7.04
					v-14.08c0-3.84-3.2-7.04-7.04-7.04c-3.84,0-7.04,3.2-7.04,7.04v9.44c0,2.24,0.8,4.48,2.08,6.4l15.52,20.64
					c2.24,3.04,3.52,6.72,3.52,10.56v9.44c0,7.84-6.4,14.08-14.08,14.08c-7.84,0-14.08-6.4-14.08-14.08v-14.08
					C652.96,773.68,660,773.68,660,773.68z"/>
			</g>
		</g>
		<g>
			<g>
				<rect x="822.4" y="717.2" class="st1" width="7.04" height="84.64"/>
			</g>
		</g>
		<g>
			<path class="st1" d="M624.8,801.84v-70.56c0-3.84,3.2-7.04,7.04-7.04c3.84,0,7.04,3.2,7.04,7.04v70.56h7.04v-70.56
				c0-7.84-6.4-14.08-14.08-14.08c-7.84,0-14.08,6.4-14.08,14.08v70.56H624.8z"/>
		</g>
		<g>
			<g>
				<path class="st1" d="M850.56,801.84c-7.84,0-14.08-6.4-14.08-14.08v-56.48c0-7.84,6.4-14.08,14.08-14.08
					c7.84,0,14.08,6.4,14.08,14.08v56.48C864.8,795.44,858.4,801.84,850.56,801.84z M850.56,724.24c-3.84,0-7.04,3.2-7.04,7.04
					v56.48c0,3.84,3.2,7.04,7.04,7.04c3.84,0,7.04-3.2,7.04-7.04v-56.48C857.6,727.44,854.56,724.24,850.56,724.24z"/>
			</g>
		</g>
		<g>
			<path class="st1" d="M878.88,801.84v-70.56c0-3.84,3.2-7.04,7.04-7.04c3.84,0,7.04,3.2,7.04,7.04v70.56H900v-70.56
				c0-7.84-6.4-14.08-14.08-14.08c-7.84,0-14.08,6.4-14.08,14.08v70.56H878.88z"/>
		</g>
		<g>
			<path class="st1" d="M737.6,717.2v70.56c0,3.84,3.2,7.04,7.04,7.04c3.84,0,7.04-3.2,7.04-7.04V717.2h7.04v70.56
				c0,7.84-6.4,14.08-14.08,14.08c-7.84,0-14.08-6.4-14.08-14.08V717.2H737.6z"/>
		</g>
		<g>
			<path class="st1" d="M723.52,717.2c-7.84,0-14.08,6.4-14.08,14.08v70.56h7.04v-70.56c0-3.84,3.2-7.04,7.04-7.04
				C723.52,724.24,723.52,717.2,723.52,717.2z"/>
		</g>
		<path class="st1" d="M695.36,787.76V717.2h7.04v-7.04h-7.04v-14.08h-7.04v91.84c0,7.84,6.4,14.08,14.08,14.08v-7.2
			C698.56,794.8,695.36,791.6,695.36,787.76z"/>
		<path class="st1" d="M815.36,717.2v-7.04h-7.04v-14.08h-7.04v91.84c0,7.84,6.4,14.08,14.08,14.08v-7.2c-3.84,0-7.04-3.2-7.04-7.04
			V717.2H815.36z"/>
		<g>
			<path class="st1" d="M493.6,724.08c2.4,0,4.8,0.96,6.56,2.72s2.72,4,2.72,6.56c0,2.4-0.96,4.8-2.56,6.4l-22.56,22.08
				c-4.32,4.32-6.72,10.24-6.72,16.64c0,6.24,2.4,12.16,6.88,16.64s10.4,6.88,16.64,6.88s12.16-2.4,16.48-6.88
				c7.52-7.68,8.8-20,3.04-29.28l-0.96-1.44l4.32-4.32l-4.64-4.8l-8.96,9.12l2.4,2.4c3.04,3.2,4.8,7.36,4.8,11.68
				c0,4.48-1.76,8.64-4.8,11.84c-6.56,6.56-16.96,6.56-23.52,0c-3.04-3.2-4.8-7.36-4.8-11.84s1.76-8.64,4.8-11.68l22.56-22.08
				c3.04-3.04,4.64-7.04,4.64-11.36c0-4.32-1.6-8.32-4.64-11.36c-6.24-6.24-16.48-6.24-22.72,0c-3.04,3.04-4.64,7.04-4.64,11.36
				c0,3.52,1.12,7.04,3.36,9.76l4.96-4.96c-0.8-1.44-1.28-3.04-1.28-4.8c0-2.4,0.96-4.8,2.72-6.56
				C488.8,725.04,491.2,724.08,493.6,724.08z"/>
		</g>
	</g>
	<g>
		<path class="st2" d="M199.36,704.24c-4.53-4.53-10.56-7.04-17.01-7.04c-1.17,0-2.29,0.11-3.41,0.27c0.16-1.12,0.27-2.29,0.27-3.41
			c0-6.4-2.51-12.48-7.04-17.01c-4.53-4.53-10.56-7.04-16.96-7.04c-6.4,0-12.48,2.51-17.01,7.04c-4.53,4.53-7.04,10.56-7.04,17.01
			c0,6.4,2.51,12.48,7.04,17.01l6.77-6.83c-2.72-2.72-4.21-6.35-4.21-10.19c0-3.84,1.49-7.47,4.21-10.19
			c2.72-2.72,6.35-4.21,10.19-4.21s7.47,1.49,10.19,4.21c2.72,2.72,4.21,6.35,4.21,10.19c0,3.84-1.49,7.47-4.21,10.19l-41.07,41.07
			h58.03l0,0c6.4,0,12.48-2.51,17.01-7.04c4.53-4.53,7.04-10.56,7.04-17.01C206.4,714.8,203.95,708.77,199.36,704.24z
			 M158.62,724.61c0.59,4,2.13,7.79,4.59,11.04h-15.63L158.62,724.61z M192.59,731.44c-2.72,2.72-6.35,4.21-10.19,4.21l0,0l0,0l0,0
			c-3.84,0-7.47-1.49-10.19-4.21s-4.21-6.35-4.21-10.19c0-3.84,1.49-7.47,4.21-10.19c2.72-2.72,6.35-4.21,10.19-4.21
			s7.47,1.49,10.19,4.21c2.72,2.72,4.21,6.35,4.21,10.19C196.8,725.09,195.31,728.72,192.59,731.44z"/>
		<path class="st1" d="M106.94,795.76c4.53,4.53,10.56,7.04,17.01,7.04c1.17,0,2.29-0.11,3.41-0.27c-0.16,1.12-0.27,2.29-0.27,3.41
			c0,6.4,2.51,12.48,7.04,17.01c4.53,4.53,10.56,7.04,17.01,7.04c6.4,0,12.48-2.51,17.01-7.04c4.53-4.53,7.04-10.56,7.04-17.01
			c0-6.4-2.51-12.48-7.04-17.01l-6.77,6.77c2.72,2.72,4.21,6.35,4.21,10.19c0,3.84-1.49,7.47-4.21,10.19
			c-2.72,2.72-6.35,4.21-10.19,4.21s-7.47-1.49-10.19-4.21c-2.72-2.72-4.21-6.35-4.21-10.19c0-3.84,1.49-7.47,4.21-10.19
			l41.07-41.07h-58.03l0,0c-6.4,0-12.48,2.51-17.01,7.04c-4.53,4.53-7.04,10.56-7.04,17.01C99.9,785.2,102.4,791.23,106.94,795.76z
			 M147.74,775.39c-0.59-4-2.13-7.79-4.59-11.04h15.63L147.74,775.39z M113.71,768.56c2.72-2.72,6.35-4.21,10.19-4.21l0,0l0,0l0,0
			c3.84,0,7.47,1.49,10.19,4.21s4.21,6.35,4.21,10.19c0,3.84-1.49,7.47-4.21,10.19c-2.72,2.72-6.35,4.21-10.19,4.21
			s-7.47-1.49-10.19-4.21c-2.72-2.72-4.21-6.35-4.21-10.19C109.5,774.91,110.99,771.28,113.71,768.56z"/>
	</g>
</g>
<g>
	<path class="st2" d="M566.4,184.22c-6.52-6.52-15.18-10.12-24.46-10.12c-1.69,0-3.3,0.15-4.91,0.38c0.23-1.61,0.38-3.3,0.38-4.91
		c0-9.2-3.6-17.94-10.12-24.46c-6.52-6.52-15.18-10.12-24.38-10.12s-17.94,3.6-24.46,10.12c-6.52,6.52-10.12,15.18-10.12,24.46
		c0,9.2,3.6,17.94,10.12,24.46l9.74-9.81c-3.91-3.91-6.06-9.12-6.06-14.64c0-5.52,2.15-10.73,6.06-14.64
		c3.91-3.91,9.12-6.06,14.64-6.06c5.52,0,10.73,2.15,14.64,6.06c3.91,3.91,6.06,9.12,6.06,14.64c0,5.52-2.15,10.73-6.06,14.64
		l-59.03,59.03h83.41l0,0c9.2,0,17.94-3.6,24.46-10.12s10.12-15.18,10.12-24.46C576.52,199.4,572.99,190.74,566.4,184.22z
		 M507.82,213.51c0.84,5.75,3.07,11.19,6.59,15.87h-22.46L507.82,213.51z M556.66,223.32c-3.91,3.91-9.12,6.06-14.64,6.06l0,0l0,0
		l0,0c-5.52,0-10.73-2.15-14.64-6.06c-3.91-3.91-6.06-9.12-6.06-14.64s2.15-10.73,6.06-14.64c3.91-3.91,9.12-6.06,14.64-6.06
		s10.73,2.15,14.64,6.06c3.91,3.91,6.06,9.12,6.06,14.64C562.72,214.2,560.57,219.41,556.66,223.32z"/>
	<path class="st1" d="M433.53,315.78c6.52,6.52,15.18,10.12,24.46,10.12c1.69,0,3.3-0.15,4.91-0.38c-0.23,1.61-0.38,3.3-0.38,4.91
		c0,9.2,3.6,17.94,10.12,24.46S487.81,365,497.09,365c9.2,0,17.94-3.6,24.46-10.12s10.12-15.18,10.12-24.46
		c0-9.2-3.6-17.94-10.12-24.46l-9.74,9.74c3.91,3.91,6.06,9.12,6.06,14.64c0,5.52-2.15,10.73-6.06,14.64
		c-3.91,3.91-9.12,6.06-14.64,6.06s-10.73-2.15-14.64-6.06c-3.91-3.91-6.06-9.12-6.06-14.64c0-5.52,2.15-10.73,6.06-14.64
		l59.03-59.03h-83.41l0,0c-9.2,0-17.94,3.6-24.46,10.12s-10.12,15.18-10.12,24.46C423.41,300.6,427.02,309.26,433.53,315.78z
		 M492.18,286.49c-0.84-5.75-3.07-11.19-6.59-15.87h22.46L492.18,286.49z M443.27,276.68c3.91-3.91,9.12-6.06,14.64-6.06l0,0l0,0
		l0,0c5.52,0,10.73,2.15,14.64,6.06s6.06,9.12,6.06,14.64s-2.15,10.73-6.06,14.64c-3.91,3.91-9.12,6.06-14.64,6.06
		c-5.52,0-10.73-2.15-14.64-6.06c-3.91-3.91-6.06-9.12-6.06-14.64S439.36,280.59,443.27,276.68z"/>
</g>
</svg>
