<?xml version="1.0" encoding="utf-8"?>
<!-- Generator: Adobe Illustrator 24.1.0, SVG Export Plug-In . SVG Version: 6.00 Build 0)  -->
<svg version="1.1" id="Layer_1" xmlns="http://www.w3.org/2000/svg" xmlns:xlink="http://www.w3.org/1999/xlink" x="0px" y="0px"
	 viewBox="0 0 1000 1000" style="enable-background:new 0 0 1000 1000;" xml:space="preserve">
<style type="text/css">
	.st0{fill:#FFFFFF;}
	.st1{fill:#FFCC00;}
	.st2{fill:#404547;}
</style>
<rect class="st0" width="1000" height="1000"/>
<g>
	<path class="st1" d="M437.79,316.69h-36.86V132.5h73.73c6.76,0,13.27,0.88,19.52,2.63c6.25,1.76,12.09,4.24,17.53,7.45
		c5.44,3.21,10.4,7.06,14.9,11.56c4.5,4.5,8.35,9.48,11.56,14.96c3.21,5.48,5.69,11.35,7.45,17.6c1.75,6.25,2.63,12.76,2.63,19.52
		c0,10.1-1.93,19.63-5.78,28.58c-3.85,8.95-9.12,16.76-15.8,23.44c-6.68,6.68-14.49,11.95-23.44,15.8
		c-8.95,3.85-18.48,5.78-28.58,5.78h-36.86V316.69z M437.79,169.36v73.73h36.86c5.05,0,9.8-0.96,14.26-2.89
		c4.45-1.93,8.35-4.56,11.69-7.9c3.34-3.34,5.97-7.26,7.9-11.75c1.93-4.5,2.89-9.27,2.89-14.32c0-5.05-0.96-9.83-2.89-14.32
		c-1.93-4.5-4.56-8.41-7.9-11.75c-3.34-3.34-7.24-5.97-11.69-7.9c-4.45-1.93-9.21-2.89-14.26-2.89H437.79z"/>
	<path class="st2" d="M488.61,367.5h-36.86V183.31h73.73c6.76,0,13.27,0.88,19.52,2.63c6.25,1.76,12.09,4.24,17.53,7.45
		c5.44,3.21,10.4,7.06,14.9,11.56c4.5,4.5,8.35,9.48,11.56,14.96c3.21,5.48,5.69,11.35,7.45,17.6c1.75,6.25,2.63,12.76,2.63,19.52
		c0,10.1-1.93,19.63-5.78,28.58c-3.85,8.95-9.12,16.76-15.8,23.44c-6.68,6.68-14.49,11.95-23.44,15.8
		c-8.95,3.85-18.48,5.78-28.58,5.78h-36.86V367.5z M488.61,220.18v73.73h36.86c5.05,0,9.8-0.96,14.26-2.89
		c4.45-1.93,8.35-4.56,11.69-7.9s5.97-7.26,7.9-11.75c1.93-4.5,2.89-9.27,2.89-14.32c0-5.05-0.96-9.83-2.89-14.32
		c-1.93-4.5-4.56-8.41-7.9-11.75c-3.34-3.34-7.24-5.97-11.69-7.9c-4.45-1.93-9.21-2.89-14.26-2.89H488.61z"/>
	<path class="st1" d="M499,233.75c-2.97,2.64-6.32,4.81-10.09,6.44c-4.45,1.93-9.21,2.89-14.26,2.89h-36.86v-9.33h-36.86v82.93
		h36.86v-36.86h36.86c10.1,0,19.63-1.93,28.58-5.78c8.95-3.85,16.76-9.12,23.44-15.8c6.68-6.68,11.95-14.49,15.8-23.44
		c0.15-0.35,0.28-0.7,0.42-1.05H499z"/>
</g>
<g>
	<g>
		<path class="st1" d="M121.58,805.52H100V697.71h43.15c3.96,0,7.77,0.51,11.43,1.54c3.66,1.03,7.08,2.48,10.26,4.36
			c3.18,1.88,6.09,4.13,8.72,6.77c2.63,2.63,4.89,5.55,6.77,8.76c1.88,3.21,3.33,6.64,4.36,10.3c1.03,3.66,1.54,7.47,1.54,11.43
			c0,5.91-1.13,11.49-3.38,16.73c-2.26,5.24-5.34,9.81-9.25,13.72c-3.91,3.91-8.48,6.99-13.72,9.25
			c-5.24,2.26-10.81,3.38-16.73,3.38h-21.58V805.52z M121.58,719.29v43.15h21.58c2.96,0,5.74-0.56,8.35-1.69
			c2.61-1.13,4.89-2.67,6.84-4.62c1.95-1.95,3.5-4.25,4.62-6.88c1.13-2.63,1.69-5.42,1.69-8.38c0-2.96-0.56-5.75-1.69-8.38
			s-2.67-4.92-4.62-6.88c-1.95-1.95-4.24-3.5-6.84-4.62c-2.61-1.13-5.39-1.69-8.35-1.69H121.58z"/>
		<path class="st1" d="M274.5,764.55c0,6.01-1.08,11.62-3.23,16.8c-2.16,5.19-5.09,9.67-8.8,13.46c-3.71,3.78-8.06,6.77-13.04,8.95
			c-4.99,2.18-10.34,3.27-16.05,3.27c-5.66,0-10.99-1.09-15.98-3.27c-4.99-2.18-9.35-5.16-13.08-8.95
			c-3.73-3.78-6.68-8.27-8.83-13.46c-2.16-5.19-3.23-10.79-3.23-16.8c0-6.11,1.08-11.78,3.23-16.99c2.15-5.21,5.1-9.71,8.83-13.49
			c3.73-3.78,8.09-6.75,13.08-8.91c4.99-2.15,10.31-3.23,15.98-3.23c5.71,0,11.06,1.01,16.05,3.04c4.99,2.03,9.33,4.91,13.04,8.65
			c3.71,3.73,6.64,8.22,8.8,13.46C273.42,752.31,274.5,758.13,274.5,764.55z M253.82,764.55c0-3.31-0.54-6.3-1.62-8.98
			c-1.08-2.68-2.54-4.99-4.4-6.92c-1.85-1.93-4.02-3.41-6.5-4.44c-2.48-1.03-5.13-1.54-7.93-1.54c-2.81,0-5.45,0.51-7.93,1.54
			c-2.48,1.03-4.64,2.51-6.47,4.44c-1.83,1.93-3.27,4.24-4.32,6.92c-1.05,2.68-1.58,5.68-1.58,8.98c0,3.11,0.53,5.99,1.58,8.65
			c1.05,2.66,2.49,4.96,4.32,6.92c1.83,1.95,3.98,3.5,6.47,4.62c2.48,1.13,5.12,1.69,7.93,1.69c2.81,0,5.45-0.53,7.93-1.58
			c2.48-1.05,4.65-2.53,6.5-4.44c1.85-1.9,3.32-4.21,4.4-6.92C253.28,770.79,253.82,767.81,253.82,764.55z"/>
		<path class="st1" d="M387.49,776.43c0,4.21-0.8,8.18-2.41,11.92c-1.6,3.73-3.8,6.98-6.58,9.74c-2.78,2.76-6.04,4.94-9.77,6.54
			c-3.73,1.6-7.73,2.41-11.99,2.41c-3.81,0-7.47-0.66-10.98-1.99c-3.51-1.33-6.69-3.27-9.55-5.83c-2.81,2.56-5.95,4.5-9.44,5.83
			c-3.48,1.33-7.16,1.99-11.01,1.99c-4.26,0-8.25-0.8-11.95-2.41c-3.71-1.6-6.95-3.78-9.74-6.54c-2.78-2.76-4.97-6-6.58-9.74
			c-1.6-3.73-2.41-7.71-2.41-11.92v-51.27h20.52v51.27c0,1.4,0.26,2.72,0.79,3.95c0.53,1.23,1.25,2.31,2.18,3.23
			c0.93,0.93,2,1.65,3.23,2.18c1.23,0.53,2.54,0.79,3.95,0.79c1.4,0,2.73-0.26,3.98-0.79c1.25-0.53,2.36-1.25,3.31-2.18
			c0.95-0.93,1.69-2,2.22-3.23c0.53-1.23,0.79-2.54,0.79-3.95v-51.27h20.45v51.27c0,1.4,0.27,2.72,0.83,3.95
			c0.55,1.23,1.29,2.31,2.22,3.23c0.93,0.93,2,1.65,3.23,2.18c1.23,0.53,2.54,0.79,3.95,0.79c1.4,0,2.73-0.26,3.98-0.79
			c1.25-0.53,2.34-1.25,3.27-2.18c0.93-0.93,1.67-2,2.22-3.23c0.55-1.23,0.83-2.54,0.83-3.95v-51.27h20.45V776.43z"/>
		<path class="st1" d="M434.41,785.82c0.8,0.25,1.6,0.41,2.41,0.49c0.8,0.08,1.6,0.11,2.41,0.11c2,0,3.93-0.27,5.79-0.83
			c1.85-0.55,3.6-1.34,5.23-2.37c1.63-1.03,3.08-2.28,4.36-3.76c1.28-1.48,2.32-3.12,3.12-4.92l15.04,15.11
			c-1.91,2.71-4.1,5.14-6.58,7.29c-2.48,2.16-5.16,3.98-8.04,5.49c-2.88,1.5-5.91,2.64-9.1,3.42c-3.18,0.78-6.45,1.17-9.81,1.17
			c-5.66,0-10.99-1.05-15.98-3.16c-4.99-2.11-9.35-5.04-13.08-8.8c-3.73-3.76-6.68-8.23-8.83-13.42c-2.16-5.19-3.23-10.89-3.23-17.1
			c0-6.36,1.08-12.18,3.23-17.44c2.15-5.26,5.1-9.75,8.83-13.46c3.73-3.71,8.09-6.59,13.08-8.65c4.99-2.05,10.31-3.08,15.98-3.08
			c3.36,0,6.64,0.4,9.85,1.2c3.21,0.8,6.25,1.95,9.13,3.46c2.88,1.5,5.58,3.35,8.08,5.53c2.51,2.18,4.71,4.62,6.62,7.33
			L434.41,785.82z M444.93,743.5c-0.95-0.35-1.89-0.58-2.82-0.68c-0.93-0.1-1.89-0.15-2.89-0.15c-2.81,0-5.45,0.51-7.93,1.54
			c-2.48,1.03-4.64,2.49-6.47,4.4c-1.83,1.91-3.27,4.2-4.32,6.88c-1.05,2.68-1.58,5.7-1.58,9.06c0,0.75,0.04,1.6,0.11,2.56
			c0.08,0.95,0.2,1.92,0.38,2.89c0.18,0.98,0.39,1.92,0.64,2.82c0.25,0.9,0.58,1.7,0.98,2.41L444.93,743.5z"/>
		<path class="st2" d="M613.79,805.52h-21.58V697.71h43.15c3.96,0,7.77,0.51,11.43,1.54c3.66,1.03,7.08,2.48,10.26,4.36
			c3.18,1.88,6.09,4.13,8.72,6.77c2.63,2.63,4.89,5.55,6.77,8.76c1.88,3.21,3.33,6.64,4.36,10.3c1.03,3.66,1.54,7.47,1.54,11.43
			c0,5.91-1.13,11.49-3.38,16.73c-2.26,5.24-5.34,9.81-9.25,13.72c-3.91,3.91-8.48,6.99-13.72,9.25
			c-5.24,2.26-10.81,3.38-16.73,3.38h-21.58V805.52z M613.79,719.29v43.15h21.58c2.96,0,5.74-0.56,8.35-1.69
			c2.61-1.13,4.89-2.67,6.84-4.62s3.5-4.25,4.62-6.88c1.13-2.63,1.69-5.42,1.69-8.38c0-2.96-0.56-5.75-1.69-8.38
			c-1.13-2.63-2.67-4.92-4.62-6.88c-1.95-1.95-4.24-3.5-6.84-4.62c-2.61-1.13-5.39-1.69-8.35-1.69H613.79z"/>
		<path class="st2" d="M720.92,785.82c0.8,0.25,1.6,0.41,2.41,0.49c0.8,0.08,1.6,0.11,2.41,0.11c2,0,3.93-0.27,5.79-0.83
			c1.85-0.55,3.6-1.34,5.23-2.37c1.63-1.03,3.08-2.28,4.36-3.76c1.28-1.48,2.32-3.12,3.12-4.92l15.04,15.11
			c-1.91,2.71-4.1,5.14-6.58,7.29c-2.48,2.16-5.16,3.98-8.04,5.49c-2.88,1.5-5.91,2.64-9.1,3.42c-3.18,0.78-6.45,1.17-9.81,1.17
			c-5.66,0-10.99-1.05-15.98-3.16c-4.99-2.11-9.35-5.04-13.08-8.8c-3.73-3.76-6.68-8.23-8.83-13.42c-2.16-5.19-3.23-10.89-3.23-17.1
			c0-6.36,1.08-12.18,3.23-17.44c2.15-5.26,5.1-9.75,8.83-13.46c3.73-3.71,8.09-6.59,13.08-8.65c4.99-2.05,10.31-3.08,15.98-3.08
			c3.36,0,6.64,0.4,9.85,1.2c3.21,0.8,6.25,1.95,9.13,3.46c2.88,1.5,5.58,3.35,8.08,5.53c2.51,2.18,4.71,4.62,6.62,7.33
			L720.92,785.82z M731.44,743.5c-0.95-0.35-1.89-0.58-2.82-0.68c-0.93-0.1-1.89-0.15-2.89-0.15c-2.81,0-5.45,0.51-7.93,1.54
			c-2.48,1.03-4.64,2.49-6.47,4.4c-1.83,1.91-3.27,4.2-4.32,6.88c-1.05,2.68-1.58,5.7-1.58,9.06c0,0.75,0.04,1.6,0.11,2.56
			c0.08,0.95,0.2,1.92,0.38,2.89c0.18,0.98,0.39,1.92,0.64,2.82c0.25,0.9,0.58,1.7,0.98,2.41L731.44,743.5z"/>
		<path class="st2" d="M810.08,805.52c-4.96,0-9.62-0.94-13.98-2.82c-4.36-1.88-8.18-4.46-11.47-7.74
			c-3.28-3.28-5.86-7.1-7.74-11.47c-1.88-4.36-2.82-9.02-2.82-13.98V745.6h-10v-20.45h10v-32.18h20.45v32.18h31.12v20.45h-31.12
			v23.91c0,2.16,0.4,4.17,1.2,6.05c0.8,1.88,1.9,3.52,3.31,4.92c1.4,1.4,3.06,2.52,4.96,3.35c1.9,0.83,3.93,1.24,6.09,1.24h15.56
			v20.45H810.08z"/>
		<path class="st2" d="M900,805.52h-67.14l33.91-59.92h-33.91v-20.45H900l-33.91,59.92H900V805.52z"/>
	</g>
	<path class="st1" d="M519.28,725.15c-0.6,0-1.2,0.02-1.79,0.05c-0.15,0.01-0.31,0.02-0.46,0.03c-0.44,0.03-0.88,0.06-1.32,0.1
		c-0.18,0.02-0.36,0.04-0.54,0.06c-0.4,0.05-0.8,0.09-1.2,0.15c-0.21,0.03-0.41,0.07-0.61,0.1c-0.36,0.06-0.73,0.12-1.09,0.19
		c-0.23,0.05-0.46,0.1-0.69,0.15c-0.32,0.07-0.65,0.14-0.97,0.22c-0.26,0.06-0.52,0.13-0.78,0.2c-0.29,0.08-0.57,0.16-0.86,0.24
		c-0.28,0.08-0.55,0.17-0.82,0.25c-0.28,0.09-0.55,0.18-0.83,0.28c-0.25,0.09-0.51,0.18-0.76,0.27c-0.12,0.05-0.25,0.09-0.37,0.13
		c-0.09,0.04-0.18,0.08-0.27,0.12c-0.83,0.33-1.65,0.69-2.45,1.08c-0.32,0.16-0.64,0.32-0.95,0.49c-0.45,0.24-0.9,0.49-1.34,0.74
		c-0.68,0.39-1.34,0.8-1.98,1.23c-0.08,0.05-0.16,0.11-0.24,0.16c-1.41,0.95-2.77,1.98-4.04,3.13l-0.06,0.12
		c-6.85,6.29-11.25,15.2-11.64,25.14l-0.04,0.08v45.63h20.52v-44.36c0-2.15,0.4-4.18,1.2-6.09c0.8-1.9,1.9-3.56,3.31-4.96
		c1.4-1.4,3.06-2.51,4.96-3.31c1.9-0.8,3.93-1.2,6.09-1.2h18.12v-20.45H519.28z"/>
</g>
</svg>
