<?xml version="1.0" encoding="utf-8"?>
<!-- Generator: Adobe Illustrator 24.1.0, SVG Export Plug-In . SVG Version: 6.00 Build 0)  -->
<svg version="1.1" id="Layer_1" xmlns="http://www.w3.org/2000/svg" xmlns:xlink="http://www.w3.org/1999/xlink" x="0px" y="0px"
	 viewBox="0 0 1000 1000" style="enable-background:new 0 0 1000 1000;" xml:space="preserve">
<style type="text/css">
	.st0{fill:#FFFFFF;}
	.st1{clip-path:url(#SVGID_2_);fill:url(#SVGID_3_);}
	.st2{clip-path:url(#SVGID_5_);fill:url(#SVGID_6_);}
	.st3{fill:#03033D;}
	.st4{clip-path:url(#SVGID_8_);fill:url(#SVGID_9_);}
	.st5{clip-path:url(#SVGID_11_);fill:url(#SVGID_12_);}
</style>
<rect class="st0" width="1000" height="1000"/>
<g>
	<g>
		<g>
			<defs>
				<path id="SVGID_1_" d="M226.48,705.88h-47.06c-1.62,0-2.94,1.32-2.94,2.94s1.32,2.94,2.94,2.94h47.06
					c1.62,0,2.94-1.32,2.94-2.94S228.11,705.88,226.48,705.88L226.48,705.88z M155.89,705.88h-47.06c-1.62,0-2.94,1.32-2.94,2.94
					s1.32,2.94,2.94,2.94h47.06c1.62,0,2.94-1.32,2.94-2.94S157.51,705.88,155.89,705.88L155.89,705.88z M232.37,717.64h-58.83
					c-1.62,0-2.94,1.32-2.94,2.94c0,1.62,1.32,2.94,2.94,2.94h58.83c1.62,0,2.94-1.32,2.94-2.94
					C235.31,718.96,233.99,717.64,232.37,717.64L232.37,717.64z M161.77,717.64h-58.83c-1.62,0-2.94,1.32-2.94,2.94
					c0,1.62,1.32,2.94,2.94,2.94h58.83c1.62,0,2.94-1.32,2.94-2.94C164.71,718.96,163.4,717.64,161.77,717.64L161.77,717.64z
					 M197.07,729.41h-17.65c-1.62,0-2.94,1.32-2.94,2.94s1.32,2.94,2.94,2.94h17.65c1.62,0,2.94-1.32,2.94-2.94
					S198.69,729.41,197.07,729.41L197.07,729.41z M126.47,729.41h-17.65c-1.62,0-2.94,1.32-2.94,2.94s1.32,2.94,2.94,2.94h17.65
					c1.62,0,2.94-1.32,2.94-2.94S128.1,729.41,126.47,729.41L126.47,729.41z M220.6,741.18h-35.3c-1.62,0-2.94,1.32-2.94,2.94
					c0,1.62,1.32,2.94,2.94,2.94h35.3c1.62,0,2.94-1.32,2.94-2.94C223.54,742.49,222.23,741.18,220.6,741.18L220.6,741.18z
					 M150.01,741.18h-35.3c-1.62,0-2.94,1.32-2.94,2.94c0,1.62,1.32,2.94,2.94,2.94h35.3c1.62,0,2.94-1.32,2.94-2.94
					C152.95,742.49,151.63,741.18,150.01,741.18L150.01,741.18z M220.6,752.94h-35.3c-1.62,0-2.94,1.32-2.94,2.94
					c0,1.62,1.32,2.94,2.94,2.94h35.3c1.62,0,2.94-1.32,2.94-2.94C223.54,754.26,222.23,752.94,220.6,752.94L220.6,752.94z
					 M150.01,752.94h-35.3c-1.62,0-2.94,1.32-2.94,2.94c0,1.62,1.32,2.94,2.94,2.94h35.3c1.62,0,2.94-1.32,2.94-2.94
					C152.95,754.26,151.63,752.94,150.01,752.94L150.01,752.94z M197.07,764.71h-17.65c-1.62,0-2.94,1.32-2.94,2.94
					c0,1.62,1.32,2.94,2.94,2.94h17.65c1.62,0,2.94-1.32,2.94-2.94C200.01,766.02,198.69,764.71,197.07,764.71L197.07,764.71z
					 M155.89,764.71h-17.65c-1.62,0-2.94,1.32-2.94,2.94c0,1.62,1.32,2.94,2.94,2.94h17.65c1.62,0,2.94-1.32,2.94-2.94
					C158.83,766.02,157.51,764.71,155.89,764.71L155.89,764.71z M232.37,776.47h-58.83c-1.62,0-2.94,1.32-2.94,2.94
					s1.32,2.94,2.94,2.94h58.83c1.62,0,2.94-1.32,2.94-2.94S233.99,776.47,232.37,776.47L232.37,776.47z M161.77,776.47h-58.83
					c-1.62,0-2.94,1.32-2.94,2.94s1.32,2.94,2.94,2.94h58.83c1.62,0,2.94-1.32,2.94-2.94S163.4,776.47,161.77,776.47L161.77,776.47z
					 M226.48,788.24h-47.06c-1.62,0-2.94,1.32-2.94,2.94s1.32,2.94,2.94,2.94h47.06c1.62,0,2.94-1.32,2.94-2.94
					S228.11,788.24,226.48,788.24L226.48,788.24z M155.89,788.24h-47.06c-1.62,0-2.94,1.32-2.94,2.94s1.32,2.94,2.94,2.94h47.06
					c1.62,0,2.94-1.32,2.94-2.94S157.51,788.24,155.89,788.24L155.89,788.24z"/>
			</defs>
			<clipPath id="SVGID_2_">
				<use xlink:href="#SVGID_1_"  style="overflow:visible;"/>
			</clipPath>
			<linearGradient id="SVGID_3_" gradientUnits="userSpaceOnUse" x1="100" y1="750" x2="235.3085" y2="750">
				<stop  offset="0" style="stop-color:#3E36D8"/>
				<stop  offset="0.3061" style="stop-color:#2380FC"/>
				<stop  offset="0.6" style="stop-color:#279AF5"/>
				<stop  offset="1" style="stop-color:#2FDAE3"/>
			</linearGradient>
			<rect x="100" y="694.11" class="st1" width="135.31" height="111.78"/>
		</g>
		<g>
			<defs>
				<path id="SVGID_4_" d="M220.6,695.29c0.97,0,1.76,0.79,1.76,1.76c0,0.97-0.79,1.76-1.76,1.76h-35.3c-0.97,0-1.76-0.79-1.76-1.76
					c0-0.97,0.79-1.76,1.76-1.76H220.6 M150.01,695.29c0.97,0,1.76,0.79,1.76,1.76c0,0.97-0.79,1.76-1.76,1.76h-35.3
					c-0.97,0-1.76-0.79-1.76-1.76c0-0.97,0.79-1.76,1.76-1.76H150.01 M226.48,730.59c0.97,0,1.76,0.79,1.76,1.76
					c0,0.97-0.79,1.76-1.76,1.76h-17.65c-0.97,0-1.76-0.79-1.76-1.76c0-0.97,0.79-1.76,1.76-1.76H226.48 M155.89,730.59
					c0.97,0,1.76,0.79,1.76,1.76c0,0.97-0.79,1.76-1.76,1.76h-17.65c-0.97,0-1.76-0.79-1.76-1.76c0-0.97,0.79-1.76,1.76-1.76H155.89
					 M226.48,765.88c0.97,0,1.76,0.79,1.76,1.76s-0.79,1.76-1.76,1.76h-17.65c-0.97,0-1.76-0.79-1.76-1.76s0.79-1.76,1.76-1.76
					H226.48 M126.47,765.88c0.97,0,1.76,0.79,1.76,1.76s-0.79,1.76-1.76,1.76h-17.65c-0.97,0-1.76-0.79-1.76-1.76
					s0.79-1.76,1.76-1.76H126.47 M220.6,801.18c0.97,0,1.76,0.79,1.76,1.76s-0.79,1.76-1.76,1.76h-35.3c-0.97,0-1.76-0.79-1.76-1.76
					s0.79-1.76,1.76-1.76H220.6 M150.01,801.18c0.97,0,1.76,0.79,1.76,1.76s-0.79,1.76-1.76,1.76h-35.3c-0.97,0-1.76-0.79-1.76-1.76
					s0.79-1.76,1.76-1.76H150.01 M220.6,694.11h-35.3c-1.62,0-2.94,1.32-2.94,2.94c0,1.62,1.32,2.94,2.94,2.94h35.3
					c1.62,0,2.94-1.32,2.94-2.94C223.54,695.43,222.23,694.11,220.6,694.11L220.6,694.11z M150.01,694.11h-35.3
					c-1.62,0-2.94,1.32-2.94,2.94c0,1.62,1.32,2.94,2.94,2.94h35.3c1.62,0,2.94-1.32,2.94-2.94
					C152.95,695.43,151.63,694.11,150.01,694.11L150.01,694.11z M226.48,729.41h-17.65c-1.62,0-2.94,1.32-2.94,2.94
					s1.32,2.94,2.94,2.94h17.65c1.62,0,2.94-1.32,2.94-2.94S228.11,729.41,226.48,729.41L226.48,729.41z M155.89,729.41h-17.65
					c-1.62,0-2.94,1.32-2.94,2.94s1.32,2.94,2.94,2.94h17.65c1.62,0,2.94-1.32,2.94-2.94S157.51,729.41,155.89,729.41L155.89,729.41
					z M226.48,764.71h-17.65c-1.62,0-2.94,1.32-2.94,2.94c0,1.62,1.32,2.94,2.94,2.94h17.65c1.62,0,2.94-1.32,2.94-2.94
					C229.43,766.02,228.11,764.71,226.48,764.71L226.48,764.71z M126.47,764.71h-17.65c-1.62,0-2.94,1.32-2.94,2.94
					c0,1.62,1.32,2.94,2.94,2.94h17.65c1.62,0,2.94-1.32,2.94-2.94C129.41,766.02,128.1,764.71,126.47,764.71L126.47,764.71z
					 M220.6,800.01h-35.3c-1.62,0-2.94,1.32-2.94,2.94s1.32,2.94,2.94,2.94h35.3c1.62,0,2.94-1.32,2.94-2.94
					S222.23,800.01,220.6,800.01L220.6,800.01z M150.01,800.01h-35.3c-1.62,0-2.94,1.32-2.94,2.94s1.32,2.94,2.94,2.94h35.3
					c1.62,0,2.94-1.32,2.94-2.94S151.63,800.01,150.01,800.01L150.01,800.01z"/>
			</defs>
			<clipPath id="SVGID_5_">
				<use xlink:href="#SVGID_4_"  style="overflow:visible;"/>
			</clipPath>
			<linearGradient id="SVGID_6_" gradientUnits="userSpaceOnUse" x1="100" y1="750" x2="235.3085" y2="750">
				<stop  offset="0" style="stop-color:#3E36D8"/>
				<stop  offset="0.3061" style="stop-color:#2380FC"/>
				<stop  offset="0.6" style="stop-color:#279AF5"/>
				<stop  offset="1" style="stop-color:#2FDAE3"/>
			</linearGradient>
			<rect x="100" y="694.11" class="st2" width="135.31" height="111.78"/>
		</g>
	</g>
	<g>
		<path class="st3" d="M441.13,741.18v26.47c0,1.62-1.32,2.94-2.94,2.94c-1.62,0-2.94-1.32-2.94-2.94v-14.71h-35.3v14.71
			c0,1.62-1.32,2.94-2.94,2.94s-2.94-1.32-2.94-2.94V750c0-1.62,1.32-2.94,2.94-2.94h38.24v-5.81h-0.01c0-0.03,0.01-0.05,0.01-0.08
			c0-3.24-2.64-5.88-5.88-5.88h-32.19c-1.54,0-2.94-1.11-3.09-2.64c-0.18-1.76,1.2-3.24,2.93-3.24h32.36
			C435.86,729.41,441.13,734.68,441.13,741.18z M579.38,729.41H538.2c-1.62,0-2.94,1.32-2.94,2.94c0,1.62,1.32,2.94,2.94,2.94h41.18
			c1.62,0,2.94-1.32,2.94-2.94C582.32,730.73,581,729.41,579.38,729.41z M579.21,764.71l-38.07,0v-11.77h32.19
			c1.54,0,2.94-1.11,3.09-2.64c0.18-1.76-1.2-3.24-2.93-3.24h-32.36h-2.94h0c-1.62,0-2.94,1.32-2.94,2.94v17.65
			c0,1.62,1.32,2.94,2.94,2.94h0h2.94h38.24c1.72,0,3.1-1.48,2.93-3.24C582.15,765.81,580.75,764.71,579.21,764.71z M738.22,729.41
			h-41.18c-1.62,0-2.94,1.32-2.94,2.94c0,1.62,1.32,2.94,2.94,2.94h41.18c1.62,0,2.94-1.32,2.94-2.94
			C741.16,730.73,739.84,729.41,738.22,729.41z M738.05,764.71l-38.07,0v-11.77h32.19c1.54,0,2.94-1.11,3.09-2.64
			c0.18-1.76-1.2-3.24-2.93-3.24h-32.36h-2.94h0c-1.62,0-2.94,1.32-2.94,2.94v17.65c0,1.62,1.32,2.94,2.94,2.94h0h2.94h38.24
			c1.72,0,3.1-1.48,2.93-3.24C740.99,765.81,739.59,764.71,738.05,764.71z M491.13,729.41h-17.65h-5.88h-17.65
			c-1.62,0-2.94,1.32-2.94,2.94c0,1.62,1.32,2.94,2.94,2.94h17.65v32.36c0,1.62,1.32,2.94,2.94,2.94c1.62,0,2.94-1.32,2.94-2.94
			v-32.36h17.65c1.62,0,2.94-1.32,2.94-2.94C494.08,730.73,492.76,729.41,491.13,729.41z M385.24,729.41h-17.65h-5.88h-17.65
			c-1.62,0-2.94,1.32-2.94,2.94c0,1.62,1.32,2.94,2.94,2.94h17.65v32.36c0,1.62,1.32,2.94,2.94,2.94c1.62,0,2.94-1.32,2.94-2.94
			v-32.36h17.65c1.62,0,2.94-1.32,2.94-2.94C388.18,730.73,386.86,729.41,385.24,729.41z M844.11,729.41h-17.65h-5.88h-17.65
			c-1.62,0-2.94,1.32-2.94,2.94c0,1.62,1.32,2.94,2.94,2.94h17.65v32.36c0,1.62,1.32,2.94,2.94,2.94c1.62,0,2.94-1.32,2.94-2.94
			v-32.36h17.65c1.62,0,2.94-1.32,2.94-2.94C847.05,730.73,845.74,729.41,844.11,729.41z M676.45,729.41h-32.36
			c-1.62,0-2.94,1.32-2.94,2.94c0,1.62,1.32,2.94,2.94,2.94h32.36c3.24,0,5.88,2.64,5.88,5.88s-2.64,5.88-5.88,5.88h-32.36
			c-1.62,0-2.94,1.32-2.94,2.94v2.94v14.71c0,1.62,1.32,2.94,2.94,2.94s2.94-1.32,2.94-2.94v-14.71h29.41
			c6.5,0,11.77-5.27,11.77-11.77C688.21,734.68,682.95,729.41,676.45,729.41z M794.11,741.18c0-6.5-5.27-11.77-11.77-11.77h-32.36
			c-1.62,0-2.94,1.32-2.94,2.94c0,1.62,1.32,2.94,2.94,2.94h32.36c3.24,0,5.88,2.64,5.88,5.88s-2.64,5.88-5.88,5.88h-32.36
			c-1.62,0-2.94,1.32-2.94,2.94v2.94v14.71c0,1.62,1.32,2.94,2.94,2.94s2.94-1.32,2.94-2.94v-14.71h29.41
			c3.24,0,5.88,2.64,5.88,5.88c0,0.03-0.01,0.05-0.01,0.08h0.01v8.75c0,1.62,1.32,2.94,2.94,2.94s2.94-1.32,2.94-2.94v-8.82
			c0-3.52-1.55-6.67-4-8.82C792.55,747.84,794.11,744.69,794.11,741.18z M299.94,735.29h32.36c1.62,0,2.94-1.32,2.94-2.94
			c0-1.62-1.32-2.94-2.94-2.94h-32.36c-6.5,0-11.77,5.27-11.77,11.77c0,6.5,5.27,11.77,11.77,11.77h23.53
			c3.24,0,5.88,2.64,5.88,5.88s-2.64,5.88-5.88,5.88h-32.36c-1.62,0-2.94,1.32-2.94,2.94c0,1.62,1.32,2.94,2.94,2.94h32.36
			c6.5,0,11.77-5.27,11.77-11.77c0-6.5-5.27-11.77-11.77-11.77h-23.53c-3.24,0-5.88-2.64-5.88-5.88S296.69,735.29,299.94,735.29z
			 M888.23,747.06H864.7c-3.24,0-5.88-2.64-5.88-5.88s2.64-5.88,5.88-5.88h32.36c1.62,0,2.94-1.32,2.94-2.94
			c0-1.62-1.32-2.94-2.94-2.94H864.7c-6.5,0-11.77,5.27-11.77,11.77c0,6.5,5.27,11.77,11.77,11.77h23.53c3.24,0,5.88,2.64,5.88,5.88
			s-2.64,5.88-5.88,5.88h-32.36c-1.62,0-2.94,1.32-2.94,2.94c0,1.62,1.32,2.94,2.94,2.94h32.36c6.5,0,11.77-5.27,11.77-11.77
			C900,752.33,894.73,747.06,888.23,747.06z M633.16,738.42c1.05-2.01,1.68-3.92,2.05-5.55c0.4-1.78-0.99-3.46-2.86-3.46h-0.08
			c-1.38,0-2.61,0.92-2.91,2.24c-1,4.33-4.64,11.84-17.63,15.29c-13.01-3.46-16.64-10.98-17.64-15.31c-0.3-1.31-1.52-2.22-2.88-2.22
			c-1.92,0-3.36,1.74-2.93,3.57c0.37,1.6,0.99,3.48,2.02,5.44c1.92,3.67,5.6,8.23,12.6,11.58c-6.99,3.35-10.67,7.91-12.59,11.58
			c-1.03,1.96-1.65,3.84-2.02,5.44c-0.43,1.83,1.02,3.57,2.93,3.57c1.37,0,2.58-0.91,2.88-2.22c0.99-4.33,4.63-11.86,17.63-15.31
			c12.99,3.45,16.64,10.96,17.63,15.29c0.3,1.32,1.53,2.24,2.91,2.24h0c1.9,0,3.34-1.72,2.91-3.54c-0.37-1.61-0.99-3.49-2.03-5.46
			c-1.92-3.67-5.6-8.23-12.6-11.58C627.57,746.65,631.24,742.09,633.16,738.42z"/>
	</g>
</g>
<g>
	<g>
		<defs>
			<path id="SVGID_7_" d="M621.05,159.21h-96.84c-3.34,0-6.05,2.71-6.05,6.05c0,3.34,2.71,6.05,6.05,6.05h96.84
				c3.34,0,6.05-2.71,6.05-6.05C627.11,161.92,624.4,159.21,621.05,159.21L621.05,159.21z M475.79,159.21h-96.84
				c-3.34,0-6.05,2.71-6.05,6.05c0,3.34,2.71,6.05,6.05,6.05h96.84c3.34,0,6.05-2.71,6.05-6.05
				C481.84,161.92,479.13,159.21,475.79,159.21L475.79,159.21z M633.16,183.42H512.11c-3.34,0-6.05,2.71-6.05,6.05
				c0,3.34,2.71,6.05,6.05,6.05h121.05c3.34,0,6.05-2.71,6.05-6.05C639.21,186.13,636.5,183.42,633.16,183.42L633.16,183.42z
				 M487.89,183.42H366.84c-3.34,0-6.05,2.71-6.05,6.05c0,3.34,2.71,6.05,6.05,6.05h121.05c3.34,0,6.05-2.71,6.05-6.05
				C493.95,186.13,491.24,183.42,487.89,183.42L487.89,183.42z M560.53,207.63h-36.32c-3.34,0-6.05,2.71-6.05,6.05
				c0,3.34,2.71,6.05,6.05,6.05h36.32c3.34,0,6.05-2.71,6.05-6.05C566.58,210.34,563.87,207.63,560.53,207.63L560.53,207.63z
				 M415.26,207.63h-36.32c-3.34,0-6.05,2.71-6.05,6.05c0,3.34,2.71,6.05,6.05,6.05h36.32c3.34,0,6.05-2.71,6.05-6.05
				C421.32,210.34,418.61,207.63,415.26,207.63L415.26,207.63z M608.95,231.84h-72.63c-3.34,0-6.05,2.71-6.05,6.05
				c0,3.34,2.71,6.05,6.05,6.05h72.63c3.34,0,6.05-2.71,6.05-6.05C615,234.55,612.29,231.84,608.95,231.84L608.95,231.84z
				 M463.68,231.84h-72.63c-3.34,0-6.05,2.71-6.05,6.05c0,3.34,2.71,6.05,6.05,6.05h72.63c3.34,0,6.05-2.71,6.05-6.05
				C469.74,234.55,467.03,231.84,463.68,231.84L463.68,231.84z M608.95,256.05h-72.63c-3.34,0-6.05,2.71-6.05,6.05
				c0,3.34,2.71,6.05,6.05,6.05h72.63c3.34,0,6.05-2.71,6.05-6.05C615,258.76,612.29,256.05,608.95,256.05L608.95,256.05z
				 M463.68,256.05h-72.63c-3.34,0-6.05,2.71-6.05,6.05c0,3.34,2.71,6.05,6.05,6.05h72.63c3.34,0,6.05-2.71,6.05-6.05
				C469.74,258.76,467.03,256.05,463.68,256.05L463.68,256.05z M560.53,280.26h-36.32c-3.34,0-6.05,2.71-6.05,6.05
				c0,3.34,2.71,6.05,6.05,6.05h36.32c3.34,0,6.05-2.71,6.05-6.05C566.58,282.97,563.87,280.26,560.53,280.26L560.53,280.26z
				 M475.79,280.26h-36.32c-3.34,0-6.05,2.71-6.05,6.05c0,3.34,2.71,6.05,6.05,6.05h36.32c3.34,0,6.05-2.71,6.05-6.05
				C481.84,282.97,479.13,280.26,475.79,280.26L475.79,280.26z M633.16,304.47H512.11c-3.34,0-6.05,2.71-6.05,6.05
				s2.71,6.05,6.05,6.05h121.05c3.34,0,6.05-2.71,6.05-6.05S636.5,304.47,633.16,304.47L633.16,304.47z M487.89,304.47H366.84
				c-3.34,0-6.05,2.71-6.05,6.05s2.71,6.05,6.05,6.05h121.05c3.34,0,6.05-2.71,6.05-6.05S491.24,304.47,487.89,304.47L487.89,304.47
				z M621.05,328.68h-96.84c-3.34,0-6.05,2.71-6.05,6.05s2.71,6.05,6.05,6.05h96.84c3.34,0,6.05-2.71,6.05-6.05
				S624.4,328.68,621.05,328.68L621.05,328.68z M475.79,328.68h-96.84c-3.34,0-6.05,2.71-6.05,6.05s2.71,6.05,6.05,6.05h96.84
				c3.34,0,6.05-2.71,6.05-6.05S479.13,328.68,475.79,328.68L475.79,328.68z"/>
		</defs>
		<clipPath id="SVGID_8_">
			<use xlink:href="#SVGID_7_"  style="overflow:visible;"/>
		</clipPath>
		<linearGradient id="SVGID_9_" gradientUnits="userSpaceOnUse" x1="360.7895" y1="250" x2="639.2105" y2="250">
			<stop  offset="0" style="stop-color:#3E36D8"/>
			<stop  offset="0.3061" style="stop-color:#2380FC"/>
			<stop  offset="0.6" style="stop-color:#279AF5"/>
			<stop  offset="1" style="stop-color:#2FDAE3"/>
		</linearGradient>
		<rect x="360.79" y="135" class="st4" width="278.42" height="230"/>
	</g>
	<g>
		<defs>
			<path id="SVGID_10_" d="M608.95,137.42c2,0,3.63,1.63,3.63,3.63c0,2-1.63,3.63-3.63,3.63h-72.63c-2,0-3.63-1.63-3.63-3.63
				c0-2,1.63-3.63,3.63-3.63H608.95 M463.68,137.42c2,0,3.63,1.63,3.63,3.63c0,2-1.63,3.63-3.63,3.63h-72.63
				c-2,0-3.63-1.63-3.63-3.63c0-2,1.63-3.63,3.63-3.63H463.68 M621.05,210.05c2,0,3.63,1.63,3.63,3.63c0,2-1.63,3.63-3.63,3.63
				h-36.32c-2,0-3.63-1.63-3.63-3.63c0-2,1.63-3.63,3.63-3.63H621.05 M475.79,210.05c2,0,3.63,1.63,3.63,3.63
				c0,2-1.63,3.63-3.63,3.63h-36.32c-2,0-3.63-1.63-3.63-3.63c0-2,1.63-3.63,3.63-3.63H475.79 M621.05,282.68
				c2,0,3.63,1.63,3.63,3.63c0,2-1.63,3.63-3.63,3.63h-36.32c-2,0-3.63-1.63-3.63-3.63c0-2,1.63-3.63,3.63-3.63H621.05
				 M415.26,282.68c2,0,3.63,1.63,3.63,3.63c0,2-1.63,3.63-3.63,3.63h-36.32c-2,0-3.63-1.63-3.63-3.63c0-2,1.63-3.63,3.63-3.63
				H415.26 M608.95,355.32c2,0,3.63,1.63,3.63,3.63c0,2-1.63,3.63-3.63,3.63h-72.63c-2,0-3.63-1.63-3.63-3.63
				c0-2,1.63-3.63,3.63-3.63H608.95 M463.68,355.32c2,0,3.63,1.63,3.63,3.63c0,2-1.63,3.63-3.63,3.63h-72.63
				c-2,0-3.63-1.63-3.63-3.63c0-2,1.63-3.63,3.63-3.63H463.68 M608.95,135h-72.63c-3.34,0-6.05,2.71-6.05,6.05
				c0,3.34,2.71,6.05,6.05,6.05h72.63c3.34,0,6.05-2.71,6.05-6.05C615,137.71,612.29,135,608.95,135L608.95,135z M463.68,135h-72.63
				c-3.34,0-6.05,2.71-6.05,6.05c0,3.34,2.71,6.05,6.05,6.05h72.63c3.34,0,6.05-2.71,6.05-6.05C469.74,137.71,467.03,135,463.68,135
				L463.68,135z M621.05,207.63h-36.32c-3.34,0-6.05,2.71-6.05,6.05c0,3.34,2.71,6.05,6.05,6.05h36.32c3.34,0,6.05-2.71,6.05-6.05
				C627.11,210.34,624.4,207.63,621.05,207.63L621.05,207.63z M475.79,207.63h-36.32c-3.34,0-6.05,2.71-6.05,6.05
				c0,3.34,2.71,6.05,6.05,6.05h36.32c3.34,0,6.05-2.71,6.05-6.05C481.84,210.34,479.13,207.63,475.79,207.63L475.79,207.63z
				 M621.05,280.26h-36.32c-3.34,0-6.05,2.71-6.05,6.05c0,3.34,2.71,6.05,6.05,6.05h36.32c3.34,0,6.05-2.71,6.05-6.05
				C627.11,282.97,624.4,280.26,621.05,280.26L621.05,280.26z M415.26,280.26h-36.32c-3.34,0-6.05,2.71-6.05,6.05
				c0,3.34,2.71,6.05,6.05,6.05h36.32c3.34,0,6.05-2.71,6.05-6.05C421.32,282.97,418.61,280.26,415.26,280.26L415.26,280.26z
				 M608.95,352.89h-72.63c-3.34,0-6.05,2.71-6.05,6.05s2.71,6.05,6.05,6.05h72.63c3.34,0,6.05-2.71,6.05-6.05
				S612.29,352.89,608.95,352.89L608.95,352.89z M463.68,352.89h-72.63c-3.34,0-6.05,2.71-6.05,6.05s2.71,6.05,6.05,6.05h72.63
				c3.34,0,6.05-2.71,6.05-6.05S467.03,352.89,463.68,352.89L463.68,352.89z"/>
		</defs>
		<clipPath id="SVGID_11_">
			<use xlink:href="#SVGID_10_"  style="overflow:visible;"/>
		</clipPath>
		<linearGradient id="SVGID_12_" gradientUnits="userSpaceOnUse" x1="360.7895" y1="250" x2="639.2105" y2="250">
			<stop  offset="0" style="stop-color:#3E36D8"/>
			<stop  offset="0.3061" style="stop-color:#2380FC"/>
			<stop  offset="0.6" style="stop-color:#279AF5"/>
			<stop  offset="1" style="stop-color:#2FDAE3"/>
		</linearGradient>
		<rect x="360.79" y="135" class="st5" width="278.42" height="230"/>
	</g>
</g>
</svg>
