<?xml version="1.0" encoding="utf-8"?>
<!-- Generator: Adobe Illustrator 24.1.0, SVG Export Plug-In . SVG Version: 6.00 Build 0)  -->
<svg version="1.1" id="Layer_1" xmlns="http://www.w3.org/2000/svg" xmlns:xlink="http://www.w3.org/1999/xlink" x="0px" y="0px"
	 viewBox="0 0 1000 1000" style="enable-background:new 0 0 1000 1000;" xml:space="preserve">
<style type="text/css">
	.st0{fill:#FFFFFF;}
	.st1{fill:#1CB8D7;}
	.st2{fill:#7A76EF;}
</style>
<rect class="st0" width="1000" height="1000"/>
<g>
	<path class="st1" d="M500,617.65c14.6,0,26.47,11.87,26.47,26.47c0,14.6-11.87,26.47-26.47,26.47c-14.6,0-26.47-11.87-26.47-26.47
		C473.53,629.52,485.4,617.65,500,617.65 M500,600c-24.37,0-44.12,19.75-44.12,44.12c0,24.37,19.75,44.12,44.12,44.12
		c24.37,0,44.12-19.75,44.12-44.12C544.12,619.75,524.37,600,500,600L500,600z"/>
	<path class="st1" d="M605.88,617.65c14.6,0,26.47,11.87,26.47,26.47c0,14.6-11.87,26.47-26.47,26.47
		c-14.6,0-26.47-11.87-26.47-26.47C579.41,629.52,591.29,617.65,605.88,617.65 M605.88,600c-24.37,0-44.12,19.75-44.12,44.12
		c0,24.37,19.75,44.12,44.12,44.12c24.37,0,44.12-19.75,44.12-44.12C650,619.75,630.25,600,605.88,600L605.88,600z"/>
	<path class="st1" d="M508.82,760.25V900h17.65V723.53l0,0l-88.24,70.59L350,723.53V900h17.65V760.25l70.59,56.47L508.82,760.25"/>
	<path class="st2" d="M420.59,739.75L350,683.28l-70.59,56.47V600h-17.65v176.47L350,705.88l88.24,70.59l0,0V600h-17.65V739.75"/>
	<path class="st2" d="M588.24,829.41c14.6,0,26.47,11.87,26.47,26.47c0,14.6-11.87,26.47-26.47,26.47s-26.47-11.87-26.47-26.47
		C561.76,841.29,573.64,829.41,588.24,829.41 M588.24,811.76c-24.37,0-44.12,19.75-44.12,44.12c0,24.37,19.75,44.12,44.12,44.12
		s44.12-19.75,44.12-44.12C632.35,831.52,612.6,811.76,588.24,811.76L588.24,811.76z"/>
	<path class="st2" d="M694.12,829.41c14.6,0,26.47,11.87,26.47,26.47c0,14.6-11.87,26.47-26.47,26.47
		c-14.6,0-26.47-11.87-26.47-26.47C667.65,841.29,679.52,829.41,694.12,829.41 M694.12,811.76c-24.37,0-44.12,19.75-44.12,44.12
		c0,24.37,19.75,44.12,44.12,44.12c24.37,0,44.12-19.75,44.12-44.12C738.24,831.52,718.48,811.76,694.12,811.76L694.12,811.76z"/>
</g>
<g>
	<polygon class="st2" points="398.53,135 398.53,270.29 466.18,216.18 533.82,270.29 533.82,135 	"/>
	<polygon class="st1" points="466.18,365 466.18,229.71 533.82,283.82 601.47,229.71 601.47,365 	"/>
</g>
</svg>
