<?xml version="1.0" encoding="utf-8"?>
<!-- Generator: Adobe Illustrator 24.1.0, SVG Export Plug-In . SVG Version: 6.00 Build 0)  -->
<svg version="1.1" id="Layer_1" xmlns="http://www.w3.org/2000/svg" xmlns:xlink="http://www.w3.org/1999/xlink" x="0px" y="0px"
	 viewBox="0 0 1000 1000" style="enable-background:new 0 0 1000 1000;" xml:space="preserve">
<style type="text/css">
	.st0{fill:#FFFFFF;}
	.st1{fill:#CEA5A1;}
	.st2{fill:#D8B6B0;}
	.st3{fill:#E3C8C2;}
	.st4{fill:#EDD9D1;}
</style>
<rect class="st0" width="1000" height="1000"/>
<g>
	<path class="st1" d="M567.35,632.35c-25.99,0-47.06,21.07-47.06,47.06v141.18c0,25.99,21.07,47.06,47.06,47.06
		c25.99,0,47.06-21.07,47.06-47.06V679.41C614.41,653.42,593.34,632.35,567.35,632.35z M605,820.59c0,20.76-16.89,37.65-37.65,37.65
		c-20.76,0-37.65-16.89-37.65-37.65V679.41c0-20.76,16.89-37.65,37.65-37.65c20.76,0,37.65,16.89,37.65,37.65V820.59z"/>
	<path class="st1" d="M765,632.35c-18.67,0-34.75,10.9-42.35,26.65c-7.61-15.75-23.69-26.65-42.35-26.65
		c-25.99,0-47.06,21.07-47.06,47.06v188.24h9.41V679.41c0-20.76,16.89-37.65,37.65-37.65c20.76,0,37.65,16.89,37.65,37.65v188.24
		h9.41V679.41c0-20.76,16.89-37.65,37.65-37.65c20.76,0,37.65,16.89,37.65,37.65v188.24h9.41V679.41
		C812.06,653.42,790.99,632.35,765,632.35z"/>
	<path class="st1" d="M454.41,632.35c-25.99,0-47.06,21.07-47.06,47.06v188.24h9.41V679.41c0-20.76,16.89-37.65,37.65-37.65
		c20.76,0,37.65,16.89,37.65,37.65v18.82h9.41v-18.82C501.47,653.42,480.4,632.35,454.41,632.35z"/>
	<path class="st1" d="M341.47,632.35c-25.99,0-47.06,21.07-47.06,47.06v18.82h9.41v-18.82c0-20.76,16.89-37.65,37.65-37.65
		c20.76,0,37.65,16.89,37.65,37.65v14.63c0,13.16-5.96,25.35-16.35,33.43L314.4,765.1c-12.7,9.88-19.98,24.77-19.98,40.86v14.63
		c0,25.99,21.07,47.06,47.06,47.06c25.99,0,47.06-21.07,47.06-47.06V694.04v-14.63C388.53,653.42,367.46,632.35,341.47,632.35z
		 M379.12,820.59c0,20.76-16.89,37.65-37.65,37.65c-20.76,0-37.65-16.89-37.65-37.65v-14.63c0-13.16,5.96-25.35,16.35-33.43
		l48.37-37.62c4.14-3.22,7.65-7.03,10.57-11.19V820.59z"/>
	<path class="st1" d="M877.94,632.35c-25.99,0-47.06,21.07-47.06,47.06v18.82h9.41v-18.82c0-20.76,16.89-37.65,37.65-37.65
		c20.76,0,37.65,16.89,37.65,37.65v14.63c0,13.16-5.96,25.35-16.35,33.43l-48.37,37.62c-12.7,9.88-19.98,24.77-19.98,40.86v14.63
		c0,25.99,21.07,47.06,47.06,47.06c25.99,0,47.06-21.07,47.06-47.06V694.04v-14.63C925,653.42,903.93,632.35,877.94,632.35z
		 M915.59,820.59c0,20.76-16.89,37.65-37.65,37.65s-37.65-16.89-37.65-37.65v-14.63c0-13.16,5.96-25.35,16.35-33.43l48.37-37.62
		c4.14-3.22,7.65-7.03,10.57-11.19V820.59z"/>
</g>
<polygon class="st2" points="247.35,632.35 162.65,867.65 172.06,867.65 256.76,632.35 "/>
<polygon class="st3" points="228.53,632.35 143.82,867.65 153.24,867.65 237.94,632.35 "/>
<polygon class="st1" points="266.18,632.35 181.47,867.65 275.59,867.65 275.59,858.24 194.25,858.24 275.59,632.35 "/>
<polygon class="st4" points="125,632.35 125,641.76 206.33,641.76 125,867.65 134.41,867.65 219.12,632.35 "/>
<polygon class="st2" points="547.06,132.35 462.35,367.65 471.76,367.65 556.47,132.35 "/>
<polygon class="st3" points="528.24,132.35 443.53,367.65 452.94,367.65 537.65,132.35 "/>
<polygon class="st1" points="565.88,132.35 481.18,367.65 575.29,367.65 575.29,358.24 493.95,358.24 575.29,132.35 "/>
<polygon class="st4" points="424.71,132.35 424.71,141.76 506.04,141.76 424.71,367.65 434.12,367.65 518.82,132.35 "/>
</svg>
