<?xml version="1.0" encoding="utf-8"?>
<!-- Generator: Adobe Illustrator 24.1.0, SVG Export Plug-In . SVG Version: 6.00 Build 0)  -->
<svg version="1.1" id="Layer_1" xmlns="http://www.w3.org/2000/svg" xmlns:xlink="http://www.w3.org/1999/xlink" x="0px" y="0px"
	 viewBox="0 0 1000 1000" style="enable-background:new 0 0 1000 1000;" xml:space="preserve">
<style type="text/css">
	.st0{fill:#FFFFFF;}
	.st1{fill:#585D77;}
	.st2{fill:#06BCC2;}
</style>
<rect class="st0" width="1000" height="1000"/>
<g>
	<path class="st1" d="M381.78,715.78c19.11,0,34.22,15.56,34.22,34.22s-15.56,34.22-34.22,34.22c-18.67,0-34.22-15.56-34.22-34.22
		S363.11,715.78,381.78,715.78 M381.78,692.67c-31.56,0-57.33,25.78-57.33,57.33s25.78,57.33,57.33,57.33s57.33-25.78,57.33-57.33
		S413.33,692.67,381.78,692.67L381.78,692.67z"/>
	<path class="st1" d="M260,715.78c19.11,0,34.22,15.56,34.22,34.22s-15.56,34.22-34.22,34.22c-18.67,0-34.22-15.56-34.22-34.22
		S240.89,715.78,260,715.78 M260,692.67c-31.56,0-57.33,25.78-57.33,57.33s25.78,57.33,57.33,57.33s57.33-25.78,57.33-57.33
		S291.56,692.67,260,692.67L260,692.67z"/>
	<path class="st1" d="M162.22,781.11c-4.44,2.22-9.33,3.56-14.67,3.56c-5.33,0-10.22-1.78-14.67-3.56l62.22-62.22
		c-4.44-6.22-9.78-12-16-16c-8.89-5.78-20-9.33-31.56-9.33s-22.67,3.56-31.56,9.33c-6.22,4.44-12,9.78-16,16l16.89,16.89
		c3.56-7.11,8.89-12.89,16-16c4.44-2.22,9.33-3.56,14.67-3.56c5.33,0,10.22,1.33,14.67,3.56L100,782c4.44,6.22,9.78,12,16,16
		c8.89,5.78,20,9.33,31.56,9.33s22.67-3.56,31.56-9.33c6.22-4.44,12-9.78,16-16l-16.89-16.89
		C175.11,771.78,169.33,777.56,162.22,781.11z"/>
	<path class="st1" d="M618.22,715.78c19.11,0,34.22,15.56,34.22,34.22s-15.56,34.22-34.22,34.22c-18.67,0-34.22-15.56-34.22-34.22
		S599.11,715.78,618.22,715.78 M618.22,692.67c-31.56,0-57.33,25.78-57.33,57.33s25.78,57.33,57.33,57.33s57.33-25.78,57.33-57.33
		S649.78,692.67,618.22,692.67L618.22,692.67z"/>
	<path class="st1" d="M740,715.78c19.11,0,34.22,15.56,34.22,34.22s-15.56,34.22-34.22,34.22c-18.67,0-34.22-15.56-34.22-34.22
		S720.89,715.78,740,715.78 M740,692.67c-31.56,0-57.33,25.78-57.33,57.33s25.78,57.33,57.33,57.33c31.56,0,57.33-25.78,57.33-57.33
		S771.56,692.67,740,692.67L740,692.67z"/>
	<path class="st1" d="M837.78,781.11c4.44,2.22,9.33,3.56,14.67,3.56s10.22-1.33,14.67-3.56l-62.22-62.22c4.44-6.22,9.78-12,16-16
		c8.89-5.78,20-9.33,31.56-9.33s22.67,3.56,31.56,9.33c6.22,4.44,12,9.78,16,16l-16.89,16.89c-3.56-7.11-8.89-12.89-16-16
		c-4.44-2.22-9.33-3.56-14.67-3.56s-10.22,0.89-14.67,2.67L900,781.11c-4.44,6.22-9.78,12-16,16c-8.89,5.78-20,9.33-31.56,9.33
		c-11.56,0-22.67-3.56-31.56-9.33c-6.22-4.44-12-9.78-16-16l16.89-16.89C824.89,771.78,830.67,777.56,837.78,781.11z"/>
	<g>
		<polygon class="st2" points="534.22,750 521.33,764.22 404.89,674 465.78,674 		"/>
		<polygon class="st2" points="497.33,790.89 478.22,769.56 404.89,826 465.78,826 		"/>
	</g>
	<g>
		<polygon class="st2" points="595.11,826 534.22,826 465.78,750 478.67,735.78 		"/>
		<polygon class="st2" points="534.22,674 502.67,709.11 521.78,730.44 595.11,674 		"/>
	</g>
</g>
<g>
	<g>
		<polygon class="st2" points="551.78,250 532.28,271.52 356.08,135 448.22,135 		"/>
		<polygon class="st2" points="495.96,311.87 467.05,279.59 356.08,365 448.22,365 		"/>
	</g>
	<g>
		<polygon class="st2" points="643.92,365 551.78,365 448.22,250 467.72,228.48 		"/>
		<polygon class="st2" points="551.78,135 504.04,188.13 532.95,220.41 643.92,135 		"/>
	</g>
</g>
</svg>
